# xmcd CD database file
#
# Track frame offsets:
#	150
#	18185
#	43974
#	67874
#	89317
#	109425
#	127705
#	148539
#	182998
#	202263
#
# Disc length: 2978 seconds
#
# Revision: 0
# Processed by: cddbd v1.5.2PL0 Copyright (c) Steve Scherf et al.
# Submitted via: CDex 1.70beta2
#
DISCID=8d0ba00a
DTITLE=Tann - Nadel verpflichtet
DYEAR=2014
DGENRE=Jazz
TTITLE0=Nanunks Garden
TTITLE1=Kapaum
TTITLE2=Okapi
TTITLE3=Mankys Dandy
TTITLE4=Von mir zu Dir
TTITLE5=Nearly November
TTITLE6=Dra Di Net Um
TTITLE7=Orgosolo
TTITLE8=Teenage Dirtbag
TTITLE9=Leerlauf
EXTD=YEAR: 2014
EXTT0=
EXTT1=
EXTT2=
EXTT3=
EXTT4=
EXTT5=
EXTT6=
EXTT7=
EXTT8=
EXTT9=
PLAYORDER=
